<mxfile host="65bd71144e">
    <diagram id="-AztXdqekDNXxDlePOfV" name="Use Case Diagram">
        <mxGraphModel dx="1030" dy="1676" grid="1" gridSize="10" guides="1" tooltips="1" connect="1" arrows="1" fold="1" page="1" pageScale="1" pageWidth="850" pageHeight="1100" math="0" shadow="0">
            <root>
                <mxCell id="0"/>
                <mxCell id="1" parent="0"/>
                <mxCell id="161" value="Unix Server Monitoring System - Use Case Diagram" style="text;html=1;strokeColor=none;fillColor=none;align=center;verticalAlign=middle;whiteSpace=wrap;rounded=0;fontSize=16;fontStyle=1;" parent="1" vertex="1">
                    <mxGeometry x="342.5" y="-130" width="395" height="30" as="geometry"/>
                </mxCell>
                <mxCell id="162" value="Admin" style="shape=umlActor;verticalLabelPosition=bottom;verticalAlign=top;html=1;outlineConnect=0;fillColor=#e1f5fe;strokeColor=#01579b;" parent="1" vertex="1">
                    <mxGeometry x="240" y="50" width="30" height="60" as="geometry"/>
                </mxCell>
                <mxCell id="163" value="Client User" style="shape=umlActor;verticalLabelPosition=bottom;verticalAlign=top;html=1;outlineConnect=0;fillColor=#e1f5fe;strokeColor=#01579b;" parent="1" vertex="1">
                    <mxGeometry x="240" y="288" width="30" height="60" as="geometry"/>
                </mxCell>
                <mxCell id="164" value="Monitoring&#xa;System" style="shape=umlActor;verticalLabelPosition=bottom;verticalAlign=top;html=1;outlineConnect=0;fillColor=#fff3e0;strokeColor=#e65100;" parent="1" vertex="1">
                    <mxGeometry x="810" y="190" width="30" height="60" as="geometry"/>
                </mxCell>
                <mxCell id="165" value="" style="rounded=0;whiteSpace=wrap;html=1;fillColor=none;strokeColor=#666666;strokeWidth=2;dashed=1;" parent="1" vertex="1">
                    <mxGeometry x="310" y="-70" width="460" height="680" as="geometry"/>
                </mxCell>
                <mxCell id="166" value="Authentication &amp; User Management" style="rounded=1;whiteSpace=wrap;html=1;fillColor=#f8f9fa;strokeColor=#666666;fontSize=10;fontStyle=1;verticalAlign=top;" parent="1" vertex="1">
                    <mxGeometry x="330" y="-50" width="210" height="110" as="geometry"/>
                </mxCell>
                <mxCell id="167" value="Login to System" style="ellipse;whiteSpace=wrap;html=1;fillColor=#f3e5f5;strokeColor=#4a148c;fontSize=9;" parent="1" vertex="1">
                    <mxGeometry x="357.5" y="-30" width="60" height="35" as="geometry"/>
                </mxCell>
                <mxCell id="168" value="Manage User Accounts" style="ellipse;whiteSpace=wrap;html=1;fillColor=#f3e5f5;strokeColor=#4a148c;fontSize=9;" parent="1" vertex="1">
                    <mxGeometry x="457.5" y="-30" width="70" height="35" as="geometry"/>
                </mxCell>
                <mxCell id="169" value="Assign Servers to Clients" style="ellipse;whiteSpace=wrap;html=1;fillColor=#f3e5f5;strokeColor=#4a148c;fontSize=9;" parent="1" vertex="1">
                    <mxGeometry x="340" y="10" width="70" height="35" as="geometry"/>
                </mxCell>
                <mxCell id="170" value="Logout" style="ellipse;whiteSpace=wrap;html=1;fillColor=#f3e5f5;strokeColor=#4a148c;fontSize=9;" parent="1" vertex="1">
                    <mxGeometry x="467.5" y="12.5" width="50" height="30" as="geometry"/>
                </mxCell>
                <mxCell id="171" value="Real-time Monitoring" style="rounded=1;whiteSpace=wrap;html=1;fillColor=#f8f9fa;strokeColor=#666666;fontSize=10;fontStyle=1;verticalAlign=top;" parent="1" vertex="1">
                    <mxGeometry x="550" y="-50" width="190" height="110" as="geometry"/>
                </mxCell>
                <mxCell id="172" value="View Real-time Dashboard" style="ellipse;whiteSpace=wrap;html=1;fillColor=#f3e5f5;strokeColor=#4a148c;fontSize=9;" parent="1" vertex="1">
                    <mxGeometry x="560" y="-12.5" width="70" height="35" as="geometry"/>
                </mxCell>
                <mxCell id="173" value="Monitor Real-time Processes" style="ellipse;whiteSpace=wrap;html=1;fillColor=#f3e5f5;strokeColor=#4a148c;fontSize=9;" parent="1" vertex="1">
                    <mxGeometry x="670" y="-30" width="70" height="35" as="geometry"/>
                </mxCell>
                <mxCell id="174" value="Stream Live Metrics" style="ellipse;whiteSpace=wrap;html=1;fillColor=#f3e5f5;strokeColor=#4a148c;fontSize=9;" parent="1" vertex="1">
                    <mxGeometry x="667.5" y="20" width="70" height="30" as="geometry"/>
                </mxCell>
                <mxCell id="175" value="Historical Data Analysis" style="rounded=1;whiteSpace=wrap;html=1;fillColor=#f8f9fa;strokeColor=#666666;fontSize=10;fontStyle=1;verticalAlign=top;" parent="1" vertex="1">
                    <mxGeometry x="330" y="70" width="410" height="120" as="geometry"/>
                </mxCell>
                <mxCell id="176" value="View Historical Data" style="ellipse;whiteSpace=wrap;html=1;fillColor=#f3e5f5;strokeColor=#4a148c;fontSize=9;" parent="1" vertex="1">
                    <mxGeometry x="342.5" y="90" width="70" height="35" as="geometry"/>
                </mxCell>
                <mxCell id="177" value="Select Time Intervals" style="ellipse;whiteSpace=wrap;html=1;fillColor=#f3e5f5;strokeColor=#4a148c;fontSize=9;" parent="1" vertex="1">
                    <mxGeometry x="367.5" y="150" width="65" height="35" as="geometry"/>
                </mxCell>
                <mxCell id="178" value="Analyze vmstat Data" style="ellipse;whiteSpace=wrap;html=1;fillColor=#f3e5f5;strokeColor=#4a148c;fontSize=9;" parent="1" vertex="1">
                    <mxGeometry x="570" y="110" width="70" height="35" as="geometry"/>
                </mxCell>
                <mxCell id="179" value="Analyze iostat Data" style="ellipse;whiteSpace=wrap;html=1;fillColor=#f3e5f5;strokeColor=#4a148c;fontSize=9;" parent="1" vertex="1">
                    <mxGeometry x="645" y="150" width="70" height="35" as="geometry"/>
                </mxCell>
                <mxCell id="180" value="Analyze netstat Data" style="ellipse;whiteSpace=wrap;html=1;fillColor=#f3e5f5;strokeColor=#4a148c;fontSize=9;" parent="1" vertex="1">
                    <mxGeometry x="505" y="150" width="70" height="35" as="geometry"/>
                </mxCell>
                <mxCell id="181" value="View Process Metrics" style="ellipse;whiteSpace=wrap;html=1;fillColor=#f3e5f5;strokeColor=#4a148c;fontSize=9;" parent="1" vertex="1">
                    <mxGeometry x="650" y="90" width="70" height="35" as="geometry"/>
                </mxCell>
                <mxCell id="182" value="Advanced Analytics" style="rounded=1;whiteSpace=wrap;html=1;fillColor=#f8f9fa;strokeColor=#666666;fontSize=10;fontStyle=1;verticalAlign=top;" parent="1" vertex="1">
                    <mxGeometry x="330" y="210" width="420" height="90" as="geometry"/>
                </mxCell>
                <mxCell id="183" value="View Anomaly Detection" style="ellipse;whiteSpace=wrap;html=1;fillColor=#f3e5f5;strokeColor=#4a148c;fontSize=9;" parent="1" vertex="1">
                    <mxGeometry x="342.5" y="237.5" width="70" height="35" as="geometry"/>
                </mxCell>
                <mxCell id="184" value="Configure Anomaly Rules" style="ellipse;whiteSpace=wrap;html=1;fillColor=#f3e5f5;strokeColor=#4a148c;fontSize=9;" parent="1" vertex="1">
                    <mxGeometry x="430" y="237.5" width="70" height="35" as="geometry"/>
                </mxCell>
                <mxCell id="185" value="View Forecasting Data" style="ellipse;whiteSpace=wrap;html=1;fillColor=#f3e5f5;strokeColor=#4a148c;fontSize=9;" parent="1" vertex="1">
                    <mxGeometry x="527.5" y="237.5" width="70" height="35" as="geometry"/>
                </mxCell>
                <mxCell id="186" value="Generate Predictions" style="ellipse;whiteSpace=wrap;html=1;fillColor=#f3e5f5;strokeColor=#4a148c;fontSize=9;" parent="1" vertex="1">
                    <mxGeometry x="667.5" y="237.5" width="70" height="35" as="geometry"/>
                </mxCell>
                <mxCell id="187" value="Alerts &amp; Notifications" style="rounded=1;whiteSpace=wrap;html=1;fillColor=#f8f9fa;strokeColor=#666666;fontSize=10;fontStyle=1;verticalAlign=top;" parent="1" vertex="1">
                    <mxGeometry x="330" y="320" width="410" height="120" as="geometry"/>
                </mxCell>
                <mxCell id="188" value="Receive Emergency Alerts" style="ellipse;whiteSpace=wrap;html=1;fillColor=#f3e5f5;strokeColor=#4a148c;fontSize=9;" parent="1" vertex="1">
                    <mxGeometry x="342.5" y="340" width="70" height="35" as="geometry"/>
                </mxCell>
                <mxCell id="189" value="Receive Weekly Reports" style="ellipse;whiteSpace=wrap;html=1;fillColor=#f3e5f5;strokeColor=#4a148c;fontSize=9;" parent="1" vertex="1">
                    <mxGeometry x="660" y="340" width="70" height="35" as="geometry"/>
                </mxCell>
                <mxCell id="190" value="Configure Alert Settings" style="ellipse;whiteSpace=wrap;html=1;fillColor=#f3e5f5;strokeColor=#4a148c;fontSize=9;" parent="1" vertex="1">
                    <mxGeometry x="342.5" y="390" width="70" height="35" as="geometry"/>
                </mxCell>
                <mxCell id="191" value="Send Email Notifications" style="ellipse;whiteSpace=wrap;html=1;fillColor=#f3e5f5;strokeColor=#4a148c;fontSize=9;" parent="1" vertex="1">
                    <mxGeometry x="505" y="390" width="70" height="35" as="geometry"/>
                </mxCell>
                <mxCell id="192" value="Server Management" style="rounded=1;whiteSpace=wrap;html=1;fillColor=#f8f9fa;strokeColor=#666666;fontSize=10;fontStyle=1;verticalAlign=top;" parent="1" vertex="1">
                    <mxGeometry x="330" y="470" width="420" height="120" as="geometry"/>
                </mxCell>
                <mxCell id="193" value="Add/Remove Servers" style="ellipse;whiteSpace=wrap;html=1;fillColor=#f3e5f5;strokeColor=#4a148c;fontSize=9;" parent="1" vertex="1">
                    <mxGeometry x="342.5" y="515" width="70" height="35" as="geometry"/>
                </mxCell>
                <mxCell id="194" value="Configure Server Monitoring" style="ellipse;whiteSpace=wrap;html=1;fillColor=#f3e5f5;strokeColor=#4a148c;fontSize=9;" parent="1" vertex="1">
                    <mxGeometry x="680" y="515" width="70" height="35" as="geometry"/>
                </mxCell>
                <mxCell id="195" value="View Server Status" style="ellipse;whiteSpace=wrap;html=1;fillColor=#f3e5f5;strokeColor=#4a148c;fontSize=9;" parent="1" vertex="1">
                    <mxGeometry x="505" y="512.5" width="70" height="35" as="geometry"/>
                </mxCell>
                <mxCell id="196" style="endArrow=none;html=1;entryX=0;entryY=0.5;entryDx=0;entryDy=0;" parent="1" source="162" target="166" edge="1">
                    <mxGeometry relative="1" as="geometry"/>
                </mxCell>
                <mxCell id="200" style="endArrow=none;html=1;entryX=0.004;entryY=0.35;entryDx=0;entryDy=0;entryPerimeter=0;" parent="1" source="162" target="175" edge="1">
                    <mxGeometry relative="1" as="geometry"/>
                </mxCell>
                <mxCell id="202" style="endArrow=none;html=1;entryX=0;entryY=0.25;entryDx=0;entryDy=0;" parent="1" source="162" target="182" edge="1">
                    <mxGeometry relative="1" as="geometry"/>
                </mxCell>
                <mxCell id="205" style="endArrow=none;html=1;entryX=-0.002;entryY=0.613;entryDx=0;entryDy=0;entryPerimeter=0;" parent="1" source="162" target="187" edge="1">
                    <mxGeometry relative="1" as="geometry"/>
                </mxCell>
                <mxCell id="207" style="endArrow=none;html=1;entryX=0.01;entryY=0.077;entryDx=0;entryDy=0;entryPerimeter=0;" parent="1" source="162" target="192" edge="1">
                    <mxGeometry relative="1" as="geometry"/>
                </mxCell>
                <mxCell id="209" style="endArrow=none;html=1;entryX=0.038;entryY=0.949;entryDx=0;entryDy=0;entryPerimeter=0;" parent="1" source="163" target="166" edge="1">
                    <mxGeometry relative="1" as="geometry"/>
                </mxCell>
                <mxCell id="210" style="endArrow=none;html=1;entryX=-0.007;entryY=0.629;entryDx=0;entryDy=0;entryPerimeter=0;" parent="1" source="163" target="171" edge="1">
                    <mxGeometry relative="1" as="geometry">
                        <Array as="points">
                            <mxPoint x="300" y="-90"/>
                            <mxPoint x="540" y="-90"/>
                        </Array>
                    </mxGeometry>
                </mxCell>
                <mxCell id="211" style="endArrow=none;html=1;entryX=0.027;entryY=0.99;entryDx=0;entryDy=0;entryPerimeter=0;" parent="1" source="163" target="175" edge="1">
                    <mxGeometry relative="1" as="geometry"/>
                </mxCell>
                <mxCell id="213" style="endArrow=none;html=1;" parent="1" source="163" target="182" edge="1">
                    <mxGeometry relative="1" as="geometry"/>
                </mxCell>
                <mxCell id="215" style="endArrow=none;html=1;entryX=0;entryY=0.25;entryDx=0;entryDy=0;" parent="1" source="163" target="187" edge="1">
                    <mxGeometry relative="1" as="geometry"/>
                </mxCell>
                <mxCell id="218" style="endArrow=none;html=1;entryX=0.908;entryY=1.007;entryDx=0;entryDy=0;entryPerimeter=0;" parent="1" source="164" target="171" edge="1">
                    <mxGeometry relative="1" as="geometry"/>
                </mxCell>
                <mxCell id="219" style="endArrow=none;html=1;" parent="1" source="164" target="186" edge="1">
                    <mxGeometry relative="1" as="geometry"/>
                </mxCell>
                <mxCell id="220" style="endArrow=none;html=1;entryX=1;entryY=0.5;entryDx=0;entryDy=0;" parent="1" source="164" target="187" edge="1">
                    <mxGeometry relative="1" as="geometry"/>
                </mxCell>
                <mxCell id="221" style="endArrow=open;dashed=1;html=1;dashPattern=1 3;strokeWidth=2;" parent="1" source="172" target="174" edge="1">
                    <mxGeometry relative="1" as="geometry"/>
                </mxCell>
                <mxCell id="222" value="&lt;&lt;include&gt;&gt;" style="edgeLabel;html=1;align=center;verticalAlign=middle;resizable=0;points=[];fontSize=8;" parent="221" vertex="1" connectable="0">
                    <mxGeometry x="-0.1" y="-1" relative="1" as="geometry">
                        <mxPoint as="offset"/>
                    </mxGeometry>
                </mxCell>
                <mxCell id="223" style="endArrow=open;dashed=1;html=1;dashPattern=1 3;strokeWidth=2;" parent="1" source="176" target="178" edge="1">
                    <mxGeometry relative="1" as="geometry"/>
                </mxCell>
                <mxCell id="224" value="&lt;&lt;include&gt;&gt;" style="edgeLabel;html=1;align=center;verticalAlign=middle;resizable=0;points=[];fontSize=8;" parent="223" vertex="1" connectable="0">
                    <mxGeometry x="-0.1" y="-1" relative="1" as="geometry">
                        <mxPoint as="offset"/>
                    </mxGeometry>
                </mxCell>
                <mxCell id="225" style="endArrow=open;dashed=1;html=1;dashPattern=1 3;strokeWidth=2;" parent="1" source="185" target="186" edge="1">
                    <mxGeometry relative="1" as="geometry"/>
                </mxCell>
                <mxCell id="226" value="&lt;&lt;include&gt;&gt;" style="edgeLabel;html=1;align=center;verticalAlign=middle;resizable=0;points=[];fontSize=8;" parent="225" vertex="1" connectable="0">
                    <mxGeometry x="-0.1" y="-1" relative="1" as="geometry">
                        <mxPoint as="offset"/>
                    </mxGeometry>
                </mxCell>
                <mxCell id="227" style="endArrow=open;dashed=1;html=1;dashPattern=1 3;strokeWidth=2;" parent="1" source="188" target="191" edge="1">
                    <mxGeometry relative="1" as="geometry"/>
                </mxCell>
                <mxCell id="228" value="&lt;&lt;include&gt;&gt;" style="edgeLabel;html=1;align=center;verticalAlign=middle;resizable=0;points=[];fontSize=8;" parent="227" vertex="1" connectable="0">
                    <mxGeometry x="-0.1" y="-1" relative="1" as="geometry">
                        <mxPoint as="offset"/>
                    </mxGeometry>
                </mxCell>
                <mxCell id="229" style="endArrow=open;dashed=1;html=1;dashPattern=1 3;strokeWidth=2;" parent="1" source="173" target="172" edge="1">
                    <mxGeometry relative="1" as="geometry"/>
                </mxCell>
                <mxCell id="230" value="&lt;&lt;extend&gt;&gt;" style="edgeLabel;html=1;align=center;verticalAlign=middle;resizable=0;points=[];fontSize=8;" parent="229" vertex="1" connectable="0">
                    <mxGeometry x="-0.1" y="-1" relative="1" as="geometry">
                        <mxPoint as="offset"/>
                    </mxGeometry>
                </mxCell>
                <mxCell id="231" style="endArrow=open;dashed=1;html=1;dashPattern=1 3;strokeWidth=2;" parent="1" source="177" target="176" edge="1">
                    <mxGeometry relative="1" as="geometry"/>
                </mxCell>
                <mxCell id="232" value="&lt;&lt;extend&gt;&gt;" style="edgeLabel;html=1;align=center;verticalAlign=middle;resizable=0;points=[];fontSize=8;" parent="231" vertex="1" connectable="0">
                    <mxGeometry x="-0.1" y="-1" relative="1" as="geometry">
                        <mxPoint as="offset"/>
                    </mxGeometry>
                </mxCell>
                <mxCell id="235" style="endArrow=open;dashed=1;html=1;dashPattern=1 3;strokeWidth=2;exitX=0.419;exitY=0.937;exitDx=0;exitDy=0;exitPerimeter=0;" edge="1" parent="1" source="189" target="191">
                    <mxGeometry relative="1" as="geometry">
                        <mxPoint x="459" y="377" as="sourcePoint"/>
                        <mxPoint x="534" y="403" as="targetPoint"/>
                    </mxGeometry>
                </mxCell>
                <mxCell id="236" value="&lt;&lt;include&gt;&gt;" style="edgeLabel;html=1;align=center;verticalAlign=middle;resizable=0;points=[];fontSize=8;" vertex="1" connectable="0" parent="235">
                    <mxGeometry x="-0.1" y="-1" relative="1" as="geometry">
                        <mxPoint as="offset"/>
                    </mxGeometry>
                </mxCell>
                <mxCell id="239" style="endArrow=open;dashed=1;html=1;dashPattern=1 3;strokeWidth=2;exitX=1;exitY=0.5;exitDx=0;exitDy=0;entryX=0;entryY=0;entryDx=0;entryDy=0;" edge="1" parent="1" source="176" target="180">
                    <mxGeometry relative="1" as="geometry">
                        <mxPoint x="423" y="118" as="sourcePoint"/>
                        <mxPoint x="515" y="118" as="targetPoint"/>
                    </mxGeometry>
                </mxCell>
                <mxCell id="240" value="&lt;&lt;include&gt;&gt;" style="edgeLabel;html=1;align=center;verticalAlign=middle;resizable=0;points=[];fontSize=8;" vertex="1" connectable="0" parent="239">
                    <mxGeometry x="-0.1" y="-1" relative="1" as="geometry">
                        <mxPoint as="offset"/>
                    </mxGeometry>
                </mxCell>
                <mxCell id="241" style="endArrow=open;dashed=1;html=1;dashPattern=1 3;strokeWidth=2;" edge="1" parent="1" target="179">
                    <mxGeometry relative="1" as="geometry">
                        <mxPoint x="410" y="110" as="sourcePoint"/>
                        <mxPoint x="525" y="128" as="targetPoint"/>
                    </mxGeometry>
                </mxCell>
                <mxCell id="242" value="&lt;&lt;include&gt;&gt;" style="edgeLabel;html=1;align=center;verticalAlign=middle;resizable=0;points=[];fontSize=8;" vertex="1" connectable="0" parent="241">
                    <mxGeometry x="-0.1" y="-1" relative="1" as="geometry">
                        <mxPoint as="offset"/>
                    </mxGeometry>
                </mxCell>
                <mxCell id="244" style="endArrow=open;dashed=1;html=1;dashPattern=1 3;strokeWidth=2;exitX=1;exitY=0.5;exitDx=0;exitDy=0;entryX=0;entryY=0.5;entryDx=0;entryDy=0;" edge="1" parent="1" source="176" target="181">
                    <mxGeometry relative="1" as="geometry">
                        <mxPoint x="423" y="118" as="sourcePoint"/>
                        <mxPoint x="525" y="165" as="targetPoint"/>
                        <Array as="points">
                            <mxPoint x="550" y="90"/>
                        </Array>
                    </mxGeometry>
                </mxCell>
                <mxCell id="245" value="&lt;&lt;include&gt;&gt;" style="edgeLabel;html=1;align=center;verticalAlign=middle;resizable=0;points=[];fontSize=8;" vertex="1" connectable="0" parent="244">
                    <mxGeometry x="-0.1" y="-1" relative="1" as="geometry">
                        <mxPoint as="offset"/>
                    </mxGeometry>
                </mxCell>
            </root>
        </mxGraphModel>
    </diagram>
</mxfile>